HIERARCHY
ROOT Hips
{
	OFFSET 0.000000 0.000000 0.000000
	CHANNELS 6 Xposition Yposition Zposition Zrotation Yrotation Xrotation 
	JOINT LowerBack
	{
		OFFSET 0.000000 0.000000 0.000000
		CHANNELS 3 Zrotation Yrotation Xrotation
		JOINT Spine
		{
			OFFSET 0.028270 2.035590 -0.193380
			CHANNELS 3 Zrotation Yrotation Xrotation
			JOINT Spine1
			{
				OFFSET 0.056720 2.048850 -0.042750
				CHANNELS 3 Zrotation Yrotation Xrotation
				JOINT Neck
				{
					OFFSET 0.000000 0.000000 0.000000
					CHANNELS 3 Zrotation Yrotation Xrotation
					JOINT Neck1
					{
						OFFSET -0.054170 1.746240 0.172020
						CHANNELS 3 Zrotation Yrotation Xrotation
						JOINT Head
						{
							OFFSET 0.104070 1.761360 -0.123970
							CHANNELS 3 Zrotation Yrotation Xrotation
							End Site
							{
								OFFSET 0.000000 0.000000 0.000000
							}
						}
					}
				}
				JOINT LeftShoulder
				{
					OFFSET 0.000000 0.000000 0.000000
					CHANNELS 3 Zrotation Yrotation Xrotation
					JOINT LeftArm
					{
						OFFSET 3.362410 1.200890 -0.311210
						CHANNELS 3 Zrotation Yrotation Xrotation
						JOINT LeftForeArm
						{
							OFFSET 4.983000 -0.000000 -0.000000
							CHANNELS 3 Zrotation Yrotation Xrotation
							JOINT LeftHand
							{
								OFFSET 3.483560 -0.000000 -0.000000
								CHANNELS 3 Zrotation Yrotation Xrotation
								JOINT LeftFingerBase
								{
									OFFSET 0.000000 0.000000 0.000000
									CHANNELS 3 Zrotation Yrotation Xrotation
									JOINT LeftHandIndex1
									{
										OFFSET 0.715260 -0.000000 -0.000000
										CHANNELS 3 Zrotation Yrotation Xrotation
										End Site
										{
											OFFSET 0.000000 0.000000 0.000000
										}
									}
								}
								JOINT LThumb
								{
									OFFSET 0.000000 0.000000 0.000000
									CHANNELS 3 Zrotation Yrotation Xrotation
									End Site
									{
										OFFSET 0.000000 0.000000 0.000000
									}
								}
							}
						}
					}
				}
				JOINT RightShoulder
				{
					OFFSET 0.000000 0.000000 0.000000
					CHANNELS 3 Zrotation Yrotation Xrotation
					JOINT RightArm
					{
						OFFSET -3.136600 1.374050 -0.404650
						CHANNELS 3 Zrotation Yrotation Xrotation
						JOINT RightForeArm
						{
							OFFSET -5.241900 -0.000000 -0.000000
							CHANNELS 3 Zrotation Yrotation Xrotation
							JOINT RightHand
							{
								OFFSET -3.444170 -0.000000 -0.000000
								CHANNELS 3 Zrotation Yrotation Xrotation
								JOINT RightFingerBase
								{
									OFFSET 0.000000 0.000000 0.000000
									CHANNELS 3 Zrotation Yrotation Xrotation
									JOINT RightHandIndex1
									{
										OFFSET -0.622530 -0.000000 -0.000000
										CHANNELS 3 Zrotation Yrotation Xrotation
										End Site
										{
											OFFSET 0.000000 0.000000 0.000000
										}
									}
								}
								JOINT RThumb
								{
									OFFSET 0.000000 0.000000 0.000000
									CHANNELS 3 Zrotation Yrotation Xrotation
									End Site
									{
										OFFSET 0.000000 0.000000 0.000000
									}
								}
							}
						}
					}
				}
			}
		}
	}
}
}
MOTION
Frames: 14
Frame Time: 0.008333
-7.942717 17.030247 0.313441 -175.976672 85.038897 -171.619105 4.915114 -5.085927 -5.318135 0.733352 -5.628627 -3.208270 -5.505736 -5.585027 3.069293 9.320762 -22.393199 -11.922124 -2.116347 -0.109155 -1.047099 0.000000 0.000000 0.000000 2.932636 15.433195 1.176726 -34.636497 4.434125 -0.843728 -1.141035 -65.993690 -0.007130 3.074339 -0.226266 -0.010462 -0.143747 0.200765 0.000000 0.000000 0.000000 0.000000 0.000000 0.000000 0.000000 14.984829 -19.892024 0.038458 70.814953 -22.603509 -8.488381 4.226996 29.440540 0.006452 4.323060 2.151417 0.080291 0.109189 -0.018232 -0.000000 0.000000 0.000000 0.000000 0.000000 0.000000 0.000000 
-7.686857 17.016872 0.333691 -173.191435 85.211649 -169.101487 5.264626 -4.894040 -5.183869 0.772971 -5.459475 -3.204302 -5.554002 -5.415149 3.012741 9.430556 -22.268572 -11.961230 -2.140671 -0.111369 -1.059122 0.000000 0.000000 0.000000 2.691984 15.459961 1.194875 -35.171669 5.436576 -0.907905 -1.218257 -64.706789 -0.009279 3.786043 0.077250 -0.002128 -0.156361 0.184862 0.000000 0.000000 0.000000 0.000000 0.000000 0.000000 0.000000 15.142167 -19.639592 0.061711 70.208605 -21.564031 -8.240796 4.213679 29.076187 0.006791 3.983147 2.251690 0.077305 0.110889 -0.020563 -0.000000 0.000000 0.000000 0.000000 0.000000 0.000000 0.000000 
-7.436864 17.001660 0.353266 -170.492661 85.411748 -166.664890 5.571905 -4.696415 -4.996226 0.798949 -5.279123 -3.190399 -5.612352 -5.234312 2.953122 9.558940 -22.077007 -12.001999 -2.169021 -0.113797 -1.072213 0.000000 0.000000 0.000000 2.455452 15.490784 1.210030 -35.778577 6.450159 -0.934456 -1.302465 -63.269786 -0.011658 4.648458 0.418122 0.012098 -0.169677 0.167892 0.000000 0.000000 0.000000 0.000000 0.000000 0.000000 0.000000 15.311447 -19.327175 0.096640 69.652226 -20.361478 -8.107929 4.203048 28.542734 0.007142 3.597494 2.363136 0.073118 0.112851 -0.023222 -0.000000 0.000000 0.000000 0.000000 0.000000 0.000000 0.000000 
-7.192946 16.985116 0.372570 -167.977959 85.630929 -164.409768 5.824074 -4.498377 -4.755434 0.810040 -5.091850 -3.166140 -5.678219 -5.047036 2.891375 9.694415 -21.809605 -12.038618 -2.202505 -0.116598 -1.084836 0.000000 0.000000 0.000000 2.227978 15.532300 1.222465 -36.455068 7.455256 -0.916580 -1.393511 -61.691401 -0.013951 5.619917 0.771228 0.033112 -0.182765 0.150129 -0.000000 0.000000 0.000000 0.000000 0.000000 0.000000 0.000000 15.484799 -18.948205 0.139630 69.158360 -19.013979 -8.107886 4.193875 27.856259 0.007477 3.168438 2.479052 0.067329 0.115010 -0.026215 -0.000000 0.000000 0.000000 0.000000 0.000000 0.000000 0.000000 
-6.954921 16.967734 0.391989 -165.752604 85.862188 -162.443067 6.011392 -4.304477 -4.465707 0.806224 -4.901585 -3.132030 -5.747525 -4.857515 2.828694 9.823388 -21.464642 -12.064979 -2.240989 -0.119835 -1.095317 0.000000 0.000000 0.000000 2.012378 15.588057 1.232828 -37.200893 8.438809 -0.850926 -1.491790 -59.979728 -0.015826 6.641676 1.115675 0.060410 -0.194663 0.131776 -0.000000 0.000000 0.000000 0.000000 0.000000 0.000000 0.000000 15.648707 -18.502760 0.187063 68.733426 -17.540105 -8.235628 4.184409 27.036025 0.007777 2.696026 2.596945 0.059638 0.117313 -0.029535 -0.000000 0.000000 0.000000 0.000000 0.000000 0.000000 0.000000 
-6.722262 16.950068 0.411874 -163.966124 86.099247 -160.915481 6.124855 -4.118363 -4.135157 0.787535 -4.711671 -3.089344 -5.816822 -4.669239 2.766000 9.933573 -21.035462 -12.074325 -2.285263 -0.123672 -1.101783 0.000000 0.000000 0.000000 1.812898 15.667067 1.242583 -38.016240 9.379368 -0.733316 -1.598806 -58.133536 -0.016993 7.645436 1.435045 0.092294 -0.204559 0.113022 0.000000 0.000000 0.000000 0.000000 0.000000 0.000000 0.000000 15.794827 -17.983525 0.234193 68.381629 -15.977319 -8.502388 4.172730 26.125429 0.008001 2.194617 2.705043 0.050145 0.119617 -0.033155 -0.000000 0.000000 0.000000 0.000000 0.000000 0.000000 0.000000 
-6.494141 16.932712 0.432341 -162.718798 86.338391 -159.924601 6.163312 -3.941431 -3.776910 0.755843 -4.523906 -3.040638 -5.881235 -4.484093 2.704207 10.011857 -20.527364 -12.060882 -2.333942 -0.128080 -1.102544 0.000000 0.000000 0.000000 1.628513 15.770624 1.252687 -38.902735 10.269542 -0.569183 -1.716296 -56.155802 -0.017263 8.557590 1.721702 0.126361 -0.211850 0.094042 0.000000 0.000000 0.000000 0.000000 0.000000 0.000000 0.000000 15.906360 -17.394500 0.277768 68.098980 -14.355696 -8.880374 4.156924 25.164798 0.008130 1.671249 2.801283 0.038949 0.121860 -0.037037 -0.000000 0.000000 0.000000 0.000000 0.000000 0.000000 0.000000 
-6.269562 16.916320 0.453334 -162.101088 86.575643 -159.556534 6.129542 -3.773802 -3.406596 0.713472 -4.339208 -2.988990 -5.936490 -4.302944 2.644066 10.048282 -19.947717 -12.020344 -2.385424 -0.133002 -1.096277 0.000000 0.000000 0.000000 1.457332 15.900538 1.263981 -39.862914 11.102928 -0.370446 -1.846496 -54.046693 -0.016599 9.307913 1.975942 0.159813 -0.216253 0.075045 -0.000000 0.000000 0.000000 0.000000 0.000000 0.000000 0.000000 15.969345 -16.740395 0.314881 67.878119 -12.710346 -9.336287 4.135594 24.205004 0.008151 1.139553 2.882521 0.026450 0.123971 -0.041124 -0.000000 0.000000 0.000000 0.000000 0.000000 0.000000 0.000000 
-6.047421 16.901580 0.474574 -162.177673 86.805766 -159.869991 6.031201 -3.614330 -3.041092 0.663366 -4.157616 -2.937815 -5.978704 -4.125695 2.585988 10.036061 -19.307981 -11.950199 -2.437440 -0.138305 -1.082116 0.000000 0.000000 0.000000 1.295684 16.055933 1.276946 -40.899076 11.877305 -0.157878 -1.991671 -51.807635 -0.015125 9.835058 2.203523 0.190251 -0.217813 0.056306 -0.000000 0.000000 0.000000 0.000000 0.000000 0.000000 0.000000 15.970576 -16.029378 0.343492 67.708048 -11.076325 -9.824175 4.107984 23.303616 0.008060 0.615980 2.946730 0.013350 0.125900 -0.045343 -0.000000 0.000000 0.000000 0.000000 0.000000 0.000000 0.000000 
-5.826682 16.889140 0.495600 -162.985540 87.021548 -160.896009 5.878264 -3.461352 -2.695695 0.608358 -3.978783 -2.890146 -6.005231 -3.951787 2.530356 9.973295 -18.619056 -11.850339 -2.487832 -0.143832 -1.059866 0.000000 0.000000 0.000000 1.141162 16.238640 1.292043 -42.014319 12.585931 0.040559 -2.154157 -49.437070 -0.013107 10.091577 2.414182 0.215677 -0.216878 0.038171 0.000000 0.000000 0.000000 0.000000 0.000000 0.000000 0.000000 15.902160 -15.268682 0.361809 67.575484 -9.491808 -10.297150 4.074195 22.524763 0.007864 0.123367 2.990897 0.000451 0.127586 -0.049603 -0.000000 0.000000 0.000000 0.000000 0.000000 0.000000 0.000000 
-5.606428 16.879687 0.515819 -164.500804 87.214351 -162.604422 5.683466 -3.312991 -2.383504 0.551683 -3.802238 -2.848683 -6.013277 -3.780573 2.477171 9.861710 -17.909027 -11.724166 -2.532648 -0.149228 -1.030221 0.000000 0.000000 0.000000 0.985375 16.435627 1.308581 -43.209124 13.247618 0.178825 -2.334892 -46.950428 -0.010900 10.045456 2.622444 0.234792 -0.213972 0.020973 0.000000 0.000000 0.000000 0.000000 0.000000 0.000000 0.000000 15.754862 -14.484861 0.370381 67.461501 -7.969449 -10.658645 4.034858 21.912441 0.007599 -0.329027 3.022033 -0.011749 0.129087 -0.053796 -0.000000 0.000000 0.000000 0.000000 0.000000 0.000000 0.000000 
-5.386022 16.873793 0.534589 -166.664872 87.374901 -164.932566 5.458021 -3.167329 -2.112402 0.495425 -3.627266 -2.814970 -6.002393 -3.611131 2.426269 9.708343 -17.189457 -11.576179 -2.570077 -0.154298 -0.994286 0.000000 0.000000 0.000000 0.828926 16.647299 1.327011 -44.486227 13.855456 0.212555 -2.534928 -44.349375 -0.008896 9.688400 2.839741 0.246600 -0.209798 0.005143 0.000000 0.000000 0.000000 0.000000 0.000000 0.000000 0.000000 15.530755 -13.686559 0.368580 67.350967 -6.542526 -10.858331 3.990937 21.529396 0.007289 -0.715583 3.036540 -0.022246 0.130325 -0.057812 -0.000000 0.000000 0.000000 0.000000 0.000000 0.000000 0.000000 
-5.165115 16.871858 0.551327 -169.344206 87.495499 -167.744508 5.211175 -3.022513 -1.885160 0.441114 -3.452911 -2.789477 -5.972454 -3.442353 2.377628 9.523653 -16.484281 -11.414143 -2.597492 -0.158726 -0.954046 0.000000 0.000000 0.000000 0.669313 16.865795 1.347060 -45.843984 14.417089 0.087910 -2.753550 -41.648810 -0.007443 9.033223 3.078849 0.250599 -0.205054 -0.008943 -0.000000 0.000000 0.000000 0.000000 0.000000 0.000000 0.000000 15.234396 -12.896688 0.357451 67.223726 -5.219850 -10.814984 3.943019 21.415821 0.006975 -1.025005 3.038029 -0.030741 0.131293 -0.061543 -0.000000 0.000000 0.000000 0.000000 0.000000 0.000000 0.000000 
-4.943676 16.874143 0.565473 -172.320760 87.572225 -170.821650 4.950476 -2.876482 -1.699444 0.389668 -3.277733 -2.771703 -5.924191 -3.272698 2.330919 9.320182 -15.815428 -11.247006 -2.612935 -0.162237 -0.911857 0.000000 0.000000 0.000000 0.506646 17.082849 1.368618 -47.278728 14.939979 -0.248680 -2.988461 -38.867792 -0.006799 8.116598 3.351010 0.246192 -0.200377 -0.020947 -0.000000 0.000000 0.000000 0.000000 0.000000 0.000000 0.000000 14.874748 -12.136328 0.338789 67.058662 -4.005295 -10.461024 3.890897 21.602356 0.006695 -1.251521 3.029882 -0.036831 0.131970 -0.064905 -0.000000 0.000000 0.000000 0.000000 0.000000 0.000000 0.000000 
